0
SECTION
2
HEADER
9
$ACADVER
1
AC1027
9
$INSUNITS
70
0
0
ENDSEC
0
SECTION
2
TABLES
0
TABLE
2
LAYER
70
13
0
LAYER
2
GOOGLE_EARTH_REFERENCE
70
0
62
8
6
CONTINUOUS
0
LAYER
2
WARD_155_BOUNDARY
70
0
62
1
6
CONTINUOUS
0
LAYER
2
BUILDING_FOOTPRINT
70
0
62
2
6
CONTINUOUS
0
LAYER
2
ROAD_PRIMARY
70
0
62
30
6
CONTINUOUS
0
LAYER
2
ROAD_SECONDARY
70
0
62
40
6
CONTINUOUS
0
LAYER
2
ROAD_LOCAL
70
0
62
50
6
CONTINUOUS
0
LAYER
2
LANE
70
0
62
60
6
CONTINUOUS
0
LAYER
2
OPEN_SPACE
70
0
62
3
6
CONTINUOUS
0
LAYER
2
WATER
70
0
62
4
6
CONTINUOUS
0
LAYER
2
VEGETATION
70
0
62
94
6
CONTINUOUS
0
LAYER
2
LANDMARK
70
0
62
6
6
CONTINUOUS
0
LAYER
2
TEXT_LABEL
70
0
62
7
6
CONTINUOUS
0
LAYER
2
MAP_EXTENT
70
0
62
7
6
CONTINUOUS
0
ENDTAB
0
ENDSEC
0
SECTION
2
ENTITIES
0
LWPOLYLINE
8
MAP_EXTENT
90
5
70
1
10
0
20
0
10
2384
20
0
10
2384
20
1684
10
0
20
1684
10
0
20
0
0
TEXT
8
TEXT_LABEL
10
25
20
1644
40
24
1
GOOGLE EARTH MEHRAULI BASEMAP - USER SUPPLIED PDF
0
TEXT
8
TEXT_LABEL
10
25
20
1609
40
16
1
WARD 155: BOUNDARY NOT VISIBLE IN SOURCE PDF - NO BOUNDARY FABRICATED
0
TEXT
8
TEXT_LABEL
10
25
20
1579
40
14
1
SOURCE: GOOGLE EARTH / 2026 AIRBUS IMAGERY AS SHOWN IN SUPPLIED PDF
0
TEXT
8
TEXT_LABEL
10
25
20
1554
40
14
1
COORDINATES: UNREFERENCED IMAGE SPACE
0
ENDSEC
0
EOF
